<?xml version="1.0" encoding="utf-8"?>
<!-- Generator: Adobe Illustrator 22.0.0, SVG Export Plug-In . SVG Version: 6.00 Build 0)  -->
<svg version="1.1" id="Layer_1" xmlns="http://www.w3.org/2000/svg" xmlns:xlink="http://www.w3.org/1999/xlink" x="0px" y="0px"
	 viewBox="0 0 1581.1 305.7" style="enable-background:new 0 0 1581.1 305.7;" xml:space="preserve">
<style type="text/css">
	.st0{fill:#0062FF;}
</style>
<g>
	<path class="st0" d="M412.5,36.8h28.3c6.1,0,11,4.9,11,11v207.6c0,6.1-4.9,11-11,11h-28.3c-6.1,0-11-4.9-11-11v0
		c0-1.6-2-2.4-3.1-1.2c-10.3,11.1-23.8,16.6-40.4,16.6c-10.3,0-19.8-1.9-28.5-5.8c-8.7-3.9-16.2-9.2-22.7-16
		c-6.5-6.8-11.5-14.8-15.1-24.1c-3.6-9.2-5.4-19.2-5.4-29.9c0-10.1,1.7-19.8,5.1-28.9c3.4-9.1,8.3-17.1,14.5-23.9
		c6.3-6.8,13.8-12.2,22.5-16.2c8.8-4,18.4-5.9,28.9-5.9c8.9,0,16.9,1.5,24.3,4.6c9.4,3.9,19.7-3.2,19.7-13.3V47.9
		C401.5,41.8,406.4,36.8,412.5,36.8z M338.4,195.1c0,4.6,0.8,8.9,2.5,12.9c1.7,4,3.9,7.4,6.8,10.4c2.9,3,6.3,5.3,10.2,6.9
		c4,1.7,8.3,2.5,12.9,2.5c4.4,0,8.6-0.8,12.6-2.5c4-1.7,7.4-4,10.2-6.9c2.9-2.9,5.2-6.4,6.9-10.2c1.8-3.9,2.6-8,2.6-12.5
		c0-4.4-0.9-8.6-2.6-12.6c-1.8-4-4.1-7.4-6.9-10.4c-2.9-2.9-6.3-5.3-10.2-6.9c-4-1.7-8.2-2.5-12.6-2.5s-8.6,0.8-12.6,2.5
		c-4,1.7-7.4,4-10.2,6.9c-2.9,3-5.2,6.3-6.9,10.1C339.2,186.6,338.4,190.7,338.4,195.1z"/>
	<path class="st0" d="M530.9,203.9c0,21.6,10.1,32.4,30.4,32.4c9.2,0,16.5-3.2,21.9-9.5c2.1-2.4,5.2-3.8,8.4-3.8h26.2
		c8.4,0,13.8,9.1,9.6,16.4c-12.4,21.5-34.5,32.3-66.4,32.3c-12,0-23-1.8-32.9-5.4s-18.5-8.7-25.6-15.4c-7.1-6.6-12.6-14.6-16.5-23.8
		c-3.9-9.2-5.8-19.5-5.8-31c0-11.8,1.8-22.5,5.5-32c3.7-9.5,8.9-17.6,15.8-24.2c6.8-6.6,15.1-11.8,24.8-15.4
		c9.7-3.6,20.6-5.4,32.8-5.4c12,0,22.8,1.8,32.4,5.4c9.6,3.6,17.7,8.8,24.3,15.6c6.6,6.8,11.7,15.2,15.2,25c3.5,9.9,5.3,21,5.3,33.3
		l0,0c0,2.9-2.4,5.3-5.3,5.3H530.9z M582.5,174.9c3.7,0,6.1-3.9,4.5-7.3c-1.9-3.7-4.4-6.9-7.6-9.6c-5.2-4.2-11.4-6.4-18.8-6.4
		c-7.7,0-14.1,2-19,6.1c-3.3,2.7-5.7,6.1-7.4,10.3c-1.3,3.3,1.2,6.8,4.7,6.8H582.5z"/>
	<path class="st0" d="M786.7,36.8h25.8c6.8,0,12.3,5.5,12.3,12.3v205.1c0,6.8-5.5,12.3-12.3,12.3h-25.8c-6.8,0-12.3-5.5-12.3-12.3v0
		c0-1.2-1.4-1.7-2.2-0.8C761.7,265,748,270.9,731,270.9c-10.3,0-19.8-1.9-28.5-5.8c-8.7-3.9-16.2-9.2-22.7-16
		c-6.5-6.8-11.5-14.8-15.1-24.1c-3.6-9.2-5.4-19.2-5.4-29.9c0-10.1,1.7-19.8,5.1-28.9c3.4-9.1,8.3-17.1,14.5-23.9
		c6.3-6.8,13.8-12.2,22.5-16.2c8.8-4,18.4-5.9,28.9-5.9c8.9,0,16.9,1.5,24.3,4.6c9.4,3.9,19.7-3.2,19.7-13.3V49.1
		C774.4,42.3,779.9,36.8,786.7,36.8z M711.3,195.1c0,4.6,0.8,8.9,2.5,12.9c1.7,4,3.9,7.4,6.8,10.4c2.9,3,6.3,5.3,10.2,6.9
		c4,1.7,8.3,2.5,12.9,2.5c4.4,0,8.6-0.8,12.6-2.5c4-1.7,7.4-4,10.2-6.9c2.9-2.9,5.2-6.4,6.9-10.2c1.8-3.9,2.6-8,2.6-12.5
		c0-4.4-0.9-8.6-2.6-12.6c-1.8-4-4.1-7.4-6.9-10.4c-2.9-2.9-6.3-5.3-10.2-6.9c-4-1.7-8.2-2.5-12.6-2.5s-8.6,0.8-12.6,2.5
		c-4,1.7-7.4,4-10.2,6.9c-2.9,3-5.2,6.3-6.9,10.1C712.2,186.6,711.3,190.7,711.3,195.1z"/>
</g>
<g>
	<path class="st0" d="M1170.8,166.3v89.1c0,6.1-4.9,11-11,11h-28c-6.1,0-11-4.9-11-11v-89.1h-5.6c-6.1,0-11-4.9-11-11v-19.7
		c0-6.1,4.9-11,11-11h5.6V92.9c0-6.1,4.9-11,11-11h28c6.1,0,11,4.9,11,11v31.6h17.5c6.1,0,11,4.9,11,11v19.7c0,6.1-4.9,11-11,11
		H1170.8z"/>
	<path class="st0" d="M1257.1,124.5c6.1,0,11,4.9,11,11v68.9c0,17.5,8.5,26.3,25.5,26.3c17,0,25.5-8.8,25.5-26.3v-68.9
		c0-6.1,4.9-11,11-11h28c6.1,0,11,4.9,11,11v78.6c0,19.2-6.3,33.6-19,43.2c-12.6,9.6-31.5,14.4-56.6,14.4
		c-25.1,0-43.9-4.8-56.6-14.4c-12.6-9.6-19-24-19-43.2v-78.6c0-6.1,4.9-11,11-11H1257.1z"/>
	<path class="st0" d="M1414.2,124.5h28c6.1,0,11,4.9,11,11v0c0,2.4,2.9,3.5,4.6,1.8c5.3-5.5,10.7-9.4,16.2-11.6
		c7-2.9,15.2-4.3,24.6-4.3c10,0,18.5,1.6,25.6,4.8c7.1,3.2,13.1,7.8,18.1,13.7c4.1,4.8,6.8,10.1,8.3,16c1.5,5.9,2.2,12.6,2.2,20.2
		v79.2c0,6.1-4.9,11-11,11h-28c-6.1,0-11-4.9-11-11v-60.6c0-7-0.5-12.7-1.5-17c-1-4.3-2.8-7.8-5.4-10.4c-2.2-2.2-4.7-3.8-7.5-4.7
		c-2.8-0.9-5.7-1.4-8.9-1.4c-8.5,0-15,2.5-19.5,7.6c-4.5,5.1-6.8,12.3-6.8,21.7v64.8c0,6.1-4.9,11-11,11h-28c-6.1,0-11-4.9-11-11
		V135.6C1403.2,129.5,1408.1,124.5,1414.2,124.5z"/>
</g>
<path class="st0" d="M195.6,120.6H91.5c-3.6,0-6.8,2.1-8.2,5.4l-10,22.9l-36.5,83.7l-6.9,15.7c-2.6,5.9,1.8,12.5,8.2,12.5h177.5
	c3.6,0,6.8,2.1,8.2,5.4l0,0c1.4,3.3,4.6,5.4,8.2,5.4h4.5v0h30.8v0L203.8,126C202.4,122.7,199.1,120.6,195.6,120.6z M192.6,226H95.3
	c-6.5,0-10.8-6.6-8.2-12.5l22.1-50.7c1.4-3.3,4.6-5.4,8.2-5.4h52.9c3.6,0,6.8,2.1,8.2,5.4l22.2,50.7C203.4,219.4,199,226,192.6,226z
	"/>
<path class="st0" d="M1015.9,128h-89.8c-7.9,0-15.1,4.7-18.2,11.9l-7.1,16.3l-36.5,83.7v0c-5.7,13.1,3.9,27.8,18.2,27.8h177.1
	c14.3,0,24-14.7,18.2-27.8l-43.7-100C1031,132.6,1023.8,128,1015.9,128z M952.1,164.7h38.6c7.9,0,15.1,4.7,18.2,11.9l12.6,28.9
	c5.7,13.1-3.9,27.8-18.2,27.8h-63.8c-14.3,0-24-14.7-18.2-27.8l12.6-28.9C937.1,169.4,944.2,164.7,952.1,164.7z"/>
<path class="st0" d="M167.7,48.4h-47.3c-2,0-3.7,1.2-4.5,3l-4.4,10.2l-17,38.9l-2.6,6c-1.4,3.3,1,6.9,4.5,6.9h95.3
	c3.6,0,6-3.7,4.5-6.9l-24-55C171.4,49.6,169.6,48.4,167.7,48.4z M132.4,65.5H156c2,0,3.7,1.2,4.5,3l9.6,22c1.4,3.3-1,6.9-4.5,6.9
	h-42.7c-3.6,0-6-3.7-4.5-6.9l9.6-22C128.7,66.6,130.5,65.5,132.4,65.5z"/>
</svg>
