<?xml version="1.0" encoding="utf-8"?>
<!-- Generator: Adobe Illustrator 22.0.0, SVG Export Plug-In . SVG Version: 6.00 Build 0)  -->
<svg version="1.1" id="Layer_1" xmlns="http://www.w3.org/2000/svg" xmlns:xlink="http://www.w3.org/1999/xlink" x="0px" y="0px"
	 viewBox="0 0 1000 1000" style="enable-background:new 0 0 1000 1000;" xml:space="preserve">
<style type="text/css">
	.st0{fill:#E0E0E0;}
</style>
<path class="st0" d="M683.7,340.1h-405c-13.8,0-26.4,8.2-31.9,20.9l-38.9,89.1L65.7,775.7L39,836.9c-10.1,23,6.8,48.8,31.9,48.8
	h690.8c13.8,0,26.4,8.2,31.9,20.9l0,0c5.5,12.7,18.1,20.9,31.9,20.9H843l0,0h120l0,0L715.7,361C710.1,348.3,697.6,340.1,683.7,340.1
	z M672,750.2H293.7c-25.1,0-42-25.8-31.9-48.8L347.9,504c5.5-12.7,18.1-20.9,31.9-20.9h206c13.8,0,26.4,8.2,31.9,20.9L704,701.4
	C714,724.4,697.1,750.2,672,750.2z"/>
<path class="st0" d="M575.1,58.9H391c-7.7,0-14.6,4.5-17.7,11.6L356.1,110l-66,151.2l-10.2,23.3c-5.6,12.7,3.8,27,17.7,27h371
	c13.9,0,23.2-14.2,17.7-27l-93.4-214C589.7,63.5,582.7,58.9,575.1,58.9z M438,125.4h91.6c7.7,0,14.6,4.5,17.7,11.6l37.3,85.5
	c5.6,12.7-3.8,27-17.7,27H400.7c-13.9,0-23.2-14.2-17.7-27l37.3-85.5C423.4,129.9,430.3,125.4,438,125.4z"/>
</svg>
