<?xml version="1.0" standalone="no"?>
<!DOCTYPE svg PUBLIC "-//W3C//DTD SVG 20010904//EN"
 "http://www.w3.org/TR/2001/REC-SVG-20010904/DTD/svg10.dtd">
<svg version="1.0" xmlns="http://www.w3.org/2000/svg"
 width="700.000000pt" height="700.000000pt" viewBox="0 0 700.000000 700.000000"
 preserveAspectRatio="xMidYMid meet">
<metadata>
Created by potrace 1.11, written by Peter Selinger 2001-2013
</metadata>
<g transform="translate(0.000000,700.000000) scale(0.100000,-0.100000)"
fill="#000000" stroke="none">
<path d="M2685 6576 c-45 -20 -60 -42 -116 -172 -28 -65 -64 -147 -80 -182
-16 -35 -29 -65 -29 -67 0 -3 -11 -28 -24 -57 -13 -29 -128 -291 -255 -582
-167 -383 -231 -539 -230 -565 1 -48 28 -92 70 -113 32 -17 118 -18 1365 -18
l1331 0 34 23 c70 47 78 112 29 222 -17 39 -36 81 -42 95 -6 14 -14 32 -19 41
-4 10 -20 46 -35 80 -39 95 -331 764 -365 837 -16 35 -29 65 -29 67 0 3 -11
28 -24 57 -13 29 -40 91 -61 138 -66 154 -76 168 -119 190 -40 19 -65 19 -706
19 -522 0 -671 -3 -695 -13z m1083 -470 c42 -21 50 -35 122 -201 33 -77 65
-149 70 -160 72 -157 140 -324 142 -350 3 -46 -28 -99 -71 -123 -35 -18 -62
-19 -651 -18 -576 1 -618 2 -643 19 -44 29 -69 76 -64 122 2 22 59 166 126
319 164 376 158 364 186 382 38 25 100 29 434 28 274 -1 321 -3 349 -18z"/>
<path d="M1868 4602 c-70 -25 -119 -78 -156 -166 -17 -41 -44 -101 -58 -133
-15 -32 -32 -71 -39 -88 -7 -16 -140 -320 -295 -675 -155 -355 -318 -728 -362
-830 -45 -102 -96 -218 -114 -258 -19 -41 -34 -75 -34 -77 0 -2 -81 -190 -181
-417 -414 -946 -373 -845 -373 -920 1 -55 6 -74 31 -115 34 -56 93 -100 149
-113 23 -6 1060 -10 2494 -10 l2455 -1 49 -24 c58 -28 83 -53 121 -121 37 -67
60 -90 121 -120 l53 -26 501 0 c276 1 503 2 505 4 2 2 -37 95 -87 208 -49 113
-110 252 -135 310 -37 87 -98 227 -168 385 -7 17 -23 53 -35 80 -12 28 -59
136 -105 240 -45 105 -145 332 -220 505 -75 173 -146 335 -157 360 -27 59 -42
94 -68 155 -12 27 -27 63 -35 80 -7 16 -19 46 -28 65 -8 19 -26 60 -40 90 -13
30 -52 120 -87 200 -34 80 -73 168 -85 195 -12 28 -59 136 -105 240 -45 105
-95 218 -111 253 -16 34 -29 64 -29 67 0 4 -34 83 -106 243 -13 29 -24 55 -24
58 0 3 -11 29 -24 57 -14 29 -41 88 -61 132 -41 90 -71 127 -130 158 l-40 22
-1470 2 c-1367 2 -1473 1 -1517 -15z m2339 -1009 c66 -36 98 -79 154 -207 29
-67 62 -143 75 -171 12 -27 70 -160 129 -295 59 -135 115 -263 125 -285 10
-22 72 -161 136 -310 111 -254 118 -274 118 -335 0 -90 -37 -155 -119 -209
l-40 -26 -1370 -3 c-971 -2 -1385 0 -1421 8 -105 22 -183 126 -179 238 1 49
21 101 139 372 76 173 149 339 162 368 13 29 24 55 24 57 0 2 11 28 24 57 36
80 59 133 111 253 26 61 57 133 70 160 12 28 41 94 64 147 57 130 100 174 196
198 17 4 374 7 795 6 l765 -1 42 -22z"/>
</g>
</svg>
